<svg width="667" height="309" viewBox="0 0 667 309" fill="none" xmlns="http://www.w3.org/2000/svg">
<path d="M57.7373 296.585L130.701 223.662C137.264 217.096 141.572 208.615 143.001 199.442L149.238 159.419L176.544 199.23L133.703 281.36L180.253 295.149L224.29 224.214C228.314 217.728 230.337 210.199 230.105 202.57C229.872 194.94 227.395 187.549 222.983 181.32L186.027 129.199L120.012 88.8645L105.782 111.163C100.408 119.594 97.2652 129.252 96.6487 139.231L93.5862 188.898L10.9749 273.915L57.7373 296.585Z" fill="#FFC700"/>
<path d="M287.641 153.819L226.661 127.902L222.101 119.949L211.599 149.366L165.367 132.118C161.767 130.775 158.602 128.473 156.215 125.462C153.828 122.451 152.309 118.844 151.822 115.033L150.887 107.721L119.898 88.7831L119.972 88.6786C122.797 84.8115 137.185 65.1968 142.941 58.8254C148.494 52.6252 154.936 47.2835 162.058 42.9749C170.612 37.7271 180.429 34.8959 190.464 34.7822C199.379 34.8891 208.145 37.088 216.056 41.202C221.045 43.6969 226.101 48.47 231.095 55.3824C235.634 61.8527 239.577 68.7216 242.874 75.9047C246.909 84.5042 250.393 93.352 253.303 102.394L299.064 123.196L287.638 153.811L287.641 153.819ZM210.289 99.3756L202.067 109.408L219.89 116.104L210.289 99.3756Z" fill="#FF6990"/>
<path d="M666.754 171.273L519.228 308.998H462.679L610.21 171.273H666.754Z" fill="#FFC700"/>
<path d="M607.885 169.448L453.445 4.01685H505.001L659.431 169.448H607.885Z" fill="#FFC700"/>
<path d="M295.715 127.808C295.715 127.808 308.202 133.045 313.68 139.219C319.157 145.394 322.602 158.683 322.602 158.683C322.602 158.683 289.348 162.884 286.148 132.731" fill="#FFCCD7"/>
<path d="M22.1553 275.643L0.948486 297.19L20.6536 308.998H81.3986L49.0567 291.788L22.1553 275.643Z" fill="#162C56"/>
<path d="M141.7 281.953L128.134 308.998H205.779L173.437 291.788L141.7 281.953Z" fill="#162C56"/>
<path d="M207.647 51.7776C206.321 50.1918 205.678 48.1438 205.861 46.0843C206.044 44.0247 207.038 42.1222 208.624 40.7953L241.455 13.3247L251.461 25.2847L218.63 52.7537C217.044 54.0807 214.996 54.7235 212.937 54.5408C210.877 54.358 208.975 53.3646 207.647 51.7791V51.7776ZM241.455 13.3247C243.041 11.9978 245.089 11.3553 247.149 11.5385C249.209 11.7217 251.111 12.7156 252.438 14.3016C253.765 15.8876 254.408 17.9358 254.224 19.9955C254.041 22.0552 253.047 23.9578 251.461 25.2847L241.455 13.3247Z" fill="#FFCCD7"/>
<path d="M224.198 53.201L226.181 54.3206C228.489 55.6207 231.054 56.3965 233.695 56.5926C236.337 56.7888 238.989 56.4006 241.463 55.4555C243.937 54.5105 246.172 53.0319 248.01 51.1249C249.848 49.2179 251.243 46.9293 252.096 44.422L256.317 32.0036C257.681 27.9915 257.587 23.6273 256.052 19.6774C254.518 15.7275 251.641 12.4446 247.926 10.4054C245.852 9.26499 243.572 8.54444 241.219 8.28491C238.866 8.02538 236.485 8.23194 234.211 8.89281C231.938 9.55368 229.817 10.6559 227.97 12.1365C226.122 13.6172 224.585 15.4472 223.445 17.5221L217.251 28.8241C214.967 32.9835 214.415 37.8762 215.715 42.4401C217.016 47.004 220.064 50.8707 224.198 53.201Z" fill="#FFCCD7"/>
<path d="M219.661 36.3775L220.284 36.284C221.105 36.1604 221.893 35.8763 222.603 35.448C223.314 35.0197 223.933 34.4555 224.425 33.7878C224.918 33.12 225.274 32.3618 225.473 31.5564C225.672 30.751 225.71 29.9142 225.586 29.094L224.919 24.7606C224.795 23.9406 224.51 23.1531 224.081 22.4431C223.653 21.7331 223.089 21.1145 222.421 20.6226C221.753 20.1307 220.995 19.7752 220.19 19.5763C219.385 19.3774 218.549 19.3391 217.729 19.4636L217.105 19.5571C216.285 19.6807 215.497 19.9648 214.786 20.3931C214.075 20.8215 213.456 21.3856 212.964 22.0534C212.472 22.7211 212.116 23.4794 211.916 24.2848C211.717 25.0902 211.679 25.9269 211.803 26.7472L212.472 31.0868C212.724 32.7413 213.623 34.2281 214.971 35.2202C216.319 36.2123 218.006 36.6286 219.661 36.3775Z" fill="#FFCCD7"/>
<path d="M216.096 24.5425L218.797 31.7855L216.096 24.5425Z" fill="#0C092A" stroke="#0C092A" stroke-miterlimit="10" stroke-linecap="square"/>
<path d="M243.579 43.9888L239.977 42.969L240.401 41.4689L243.256 42.2751L245.957 32.9192L247.454 33.3511L244.54 43.4539L244.323 44.1993L243.579 43.9888ZM239.227 42.7569L239.651 41.2569L240.401 41.4689L239.977 42.969L239.227 42.7569ZM245.957 32.916L246.174 32.166L247.671 32.5979L247.456 33.348L245.957 32.916Z" fill="#0C092A"/>
<path d="M222.998 32.7662L235.067 17.2666L237.933 13.5834C238.502 15.1354 239.324 16.5823 240.367 17.8653C244.126 22.5542 259.253 27.7358 265.653 18.3035C270.867 10.6036 259.907 11.6577 255.562 9.20019C248.742 5.32684 245.545 -1.00712 233.481 0.135858C219.024 1.48623 217.973 19.4278 217.973 19.4278C217.973 19.4278 224.003 19.618 222.998 32.7662Z" fill="#24272D"/>
<path d="M222.272 50.491L217.669 45.5012L217.867 54.1024L222.272 50.491Z" fill="black" fill-opacity="0.3"/>
<path d="M240.972 34.1773C241.338 34.1773 241.697 34.0685 242.002 33.8647C242.307 33.6609 242.544 33.3713 242.685 33.0324C242.825 32.6935 242.862 32.3207 242.79 31.961C242.718 31.6013 242.541 31.271 242.282 31.0117C242.023 30.7525 241.692 30.576 241.332 30.5047C240.973 30.4333 240.6 30.4703 240.261 30.6108C239.922 30.7514 239.633 30.9893 239.429 31.2944C239.226 31.5995 239.117 31.9581 239.118 32.3248C239.118 32.8163 239.313 33.2875 239.661 33.6348C240.009 33.9822 240.48 34.1773 240.972 34.1773Z" fill="#0C092A"/>
<path d="M251.146 38.6668C251.513 38.6668 251.872 38.558 252.176 38.3542C252.481 38.1504 252.719 37.8608 252.859 37.5219C253 37.1831 253.036 36.8102 252.965 36.4505C252.893 36.0908 252.716 35.7605 252.457 35.5012C252.197 35.242 251.867 35.0655 251.507 34.9942C251.147 34.9228 250.774 34.9598 250.436 35.1003C250.097 35.2409 249.807 35.4788 249.604 35.7839C249.4 36.089 249.292 36.4476 249.292 36.8143C249.293 37.3058 249.488 37.777 249.836 38.1243C250.183 38.4717 250.655 38.6668 251.146 38.6668Z" fill="#0C092A"/>
<path d="M607.091 171.273L459.561 308.999L301.717 139.921L449.243 2.19287L607.091 171.273Z" fill="#FFC700"/>
<path d="M232.419 129.556C231.742 129.081 231.282 128.356 231.139 127.541C230.997 126.727 231.184 125.889 231.659 125.212L237.97 116.235L243.072 119.821L236.763 128.798C236.287 129.475 235.562 129.935 234.748 130.077C233.933 130.219 233.095 130.032 232.419 129.556ZM237.97 116.235C238.202 115.893 238.501 115.6 238.847 115.375C239.194 115.149 239.582 114.994 239.989 114.92C240.396 114.846 240.814 114.853 241.218 114.942C241.622 115.03 242.004 115.199 242.343 115.436C242.681 115.674 242.969 115.977 243.189 116.327C243.41 116.678 243.558 117.068 243.626 117.476C243.694 117.884 243.68 118.302 243.585 118.704C243.489 119.107 243.315 119.487 243.072 119.821L237.97 116.235Z" fill="#C4D0FB"/>
<path d="M253.717 74.1677L258.622 92.5786L274.932 94.4498L268.634 107.978L254.443 119.7L240.156 118.546L236.011 106.913L238.311 92.5256L253.717 74.1677Z" fill="#B4584E"/>
<path d="M239.654 121.224C234.489 117.866 232.607 111.581 232.911 105.069C233.499 97.5264 236.04 90.2665 240.282 84.0026L245.511 87.4019C241.874 92.7384 239.68 98.9252 239.142 105.361C238.89 110.757 240.513 114.342 243.053 115.994C245.593 117.645 249.529 117.671 254.358 115.25C260.021 112.144 264.784 107.627 268.185 102.136L273.413 105.535C269.411 111.953 263.808 117.22 257.154 120.817C254.109 122.424 250.734 123.306 247.291 123.394C244.588 123.435 241.932 122.68 239.654 121.224ZM268.189 102.138C271.826 96.8005 274.02 90.6132 274.558 84.1772C274.81 78.782 273.187 75.1955 270.647 73.5458C268.107 71.896 264.17 71.8664 259.342 74.2896C253.677 77.3931 248.912 81.9105 245.511 87.4019L240.282 84.0026C244.283 77.5812 249.885 72.3116 256.54 68.7119C262.367 65.7897 268.877 64.957 274.046 68.3189C279.215 71.6808 281.094 77.9618 280.789 84.4751C280.202 92.0177 277.662 99.2777 273.419 105.542L268.189 102.138Z" fill="#FFC700"/>
<path d="M287.965 308.998L273.73 287.651L259.492 308.998H287.965Z" fill="white"/>
<path d="M451.765 165.025L457.26 142.201L434.08 145.9L451.765 165.025Z" fill="#FF6990"/>
<path d="M417.096 308.998L379.75 253.006L342.404 308.998H417.096Z" fill="white"/>
<path d="M345.406 236.099H314.926V308.998H345.406V236.099Z" fill="white"/>
<path d="M473.395 159.626L459.049 172.88L490.762 207.186L505.108 193.931L473.395 159.626Z" fill="#FF6990"/>
<path d="M306.12 309C306.12 297.909 310.526 287.272 318.369 279.429C326.211 271.587 336.848 267.181 347.94 267.181C359.031 267.181 369.668 271.587 377.51 279.429C385.353 287.272 389.759 297.909 389.759 309" fill="#EA8E9D"/>
<path d="M426.632 137.854C430.356 134.319 432.538 129.46 432.705 124.328C432.873 119.197 431.013 114.206 427.528 110.436C424.042 106.666 419.213 104.42 414.084 104.184C408.955 103.949 403.94 105.743 400.124 109.178L426.632 137.854Z" fill="#FF6990"/>
<path d="M232.852 41.0806C232.613 42.2116 232.778 43.3909 233.32 44.4123C233.861 45.4338 234.745 46.2326 235.815 46.6692L232.852 41.0806Z" fill="#0C092A" stroke="#0C092A" stroke-miterlimit="10"/>
<path d="M202.023 109.591L186.799 103.647L187.083 102.92L186.799 103.647L186.31 103.455V102.929L185.886 69.5694L187.445 69.5507L187.857 102.385L202.591 108.139L203.317 108.423L202.748 109.875L202.023 109.591ZM185.876 68.7913L187.436 68.771L187.445 69.5507L185.886 69.5694L185.876 68.7913Z" fill="#FFC700"/>
<path d="M220.771 124.585C224.825 122.805 229.271 122.106 233.676 122.557L242.096 125.724C242.096 125.724 249.57 131.718 239.322 142.318C229.074 152.918 212.157 146.508 212.157 146.508" fill="#FFCCD7"/>
</svg>
