<svg
    viewBox="0 0 57 57"
    fill="none"
    xmlns="http://www.w3.org/2000/svg"
>
    <path
    d="M56.6667 28.7537C56.6667 34.3355 55.0115 39.792 51.9104 44.4331C48.8093 49.0743 44.4016 52.6916 39.2447 54.8276C34.0878 56.9637 28.4132 57.5226 22.9386 56.4337C17.4641 55.3447 12.4353 52.6568 8.4884 48.7098C4.54145 44.7629 1.85355 39.7342 0.764585 34.2596C-0.324376 28.785 0.234518 23.1105 2.37059 17.9535C4.50666 12.7966 8.12398 8.38889 12.7651 5.2878C17.4062 2.1867 22.8627 0.531494 28.4445 0.531494C35.9295 0.531494 43.108 3.5049 48.4007 8.79759C53.6933 14.0903 56.6667 21.2687 56.6667 28.7537Z"
    fill="#F78000"
    />
    <path
    d="M26.6841 33.9299C26.6102 32.39 26.9257 30.8564 27.6013 29.4707L30.7569 31.0494C30.3484 31.8993 30.1598 32.8382 30.2083 33.7799C30.2279 34.2473 30.0611 34.7032 29.7445 35.0476C29.428 35.3919 28.9876 35.5964 28.5203 35.6161H28.4409C27.9875 35.6148 27.552 35.4388 27.2248 35.1248C26.8977 34.8108 26.704 34.3829 26.6841 33.9299ZM27.6013 29.4707C28.2374 28.1285 29.3067 27.0394 30.637 26.3786L31.3848 27.975L30.637 26.3875C30.6916 26.3628 30.7446 26.3398 30.801 26.3187C31.3421 26.1291 31.807 25.7688 32.1257 25.2921L35.059 27.2394C34.3382 28.3211 33.2944 29.1476 32.0763 29.6013C31.4948 29.9328 31.0331 30.4397 30.7569 31.0494L27.6013 29.4707ZM32.1239 25.2833C32.4417 24.806 32.5959 24.2383 32.5631 23.6658C32.5631 23.6323 32.5631 23.5988 32.5631 23.5652C32.5545 23.2223 32.4712 22.8853 32.3188 22.5779C32.1665 22.2705 31.9489 22.0001 31.6812 21.7855L33.9654 19.1079C34.6139 19.6481 35.1386 20.3214 35.5038 21.0823C35.869 21.8432 36.0663 22.6738 36.0821 23.5176C36.1455 24.8354 35.7845 26.1387 35.052 27.2359L32.1239 25.2833ZM20.8015 23.5652C20.8101 22.7133 21.0039 21.8733 21.3694 21.1037C21.7349 20.334 22.2634 19.653 22.9182 19.1079C24.2612 17.9849 25.9601 17.3765 27.7107 17.3916V20.9194C26.8014 20.9039 25.916 21.2107 25.2112 21.7855C24.9438 22.0003 24.7264 22.2708 24.5741 22.5781C24.4218 22.8855 24.3382 23.2223 24.3293 23.5652C24.3293 24.0331 24.1435 24.4817 23.8127 24.8125C23.4819 25.1433 23.0332 25.3291 22.5654 25.3291C22.0976 25.3291 21.6489 25.1433 21.3181 24.8125C20.9874 24.4817 20.8015 24.0331 20.8015 23.5652ZM29.18 20.9194V17.3916C30.9282 17.3778 32.6244 17.9862 33.9654 19.1079L31.6724 21.7855C30.9696 21.2121 30.0869 20.9054 29.18 20.9194ZM27.7107 20.9194V17.3916H29.18V20.9194H27.7107Z"
    fill="white"
    />
    <path
    d="M26.6805 39.7472V39.7331H30.2083V39.7472C30.2083 40.2151 30.0225 40.6637 29.6917 40.9945C29.3609 41.3253 28.9122 41.5111 28.4444 41.5111C27.9766 41.5111 27.528 41.3253 27.1972 40.9945C26.8664 40.6637 26.6805 40.2151 26.6805 39.7472ZM26.6805 39.7331C26.6805 39.2653 26.8664 38.8167 27.1972 38.4859C27.528 38.1551 27.9766 37.9692 28.4444 37.9692C28.9122 37.9692 29.3609 38.1551 29.6917 38.4859C30.0225 38.8167 30.2083 39.2653 30.2083 39.7331H26.6805Z"
    fill="white"
    />
</svg>
